<svg xmlns="http://www.w3.org/2000/svg" width="120" height="120" enable-background="new 0 0 100 88.891" style=""><rect id="backgroundrect" width="100%" height="100%" x="0" y="0" fill="none" stroke="none" style="" class=""/><g class="currentLayer" style=""><title>Layer 1</title><g class="selected" stroke="#38b5ad" stroke-opacity="1" fill="#38b5ad" fill-opacity="1"><path fill="#38b5ad" d="M100.28496551513672,82.11992359161377 v0.10000000149011612 H93.33496856689453 c-2.0399999618530273,0 -3.700000047683716,-1.659999966621399 -3.700000047683716,-3.700000047683716 c0,-2.049999952316284 1.659999966621399,-3.700000047683716 3.700000047683716,-3.700000047683716 h5.559999942779541 c2.0299999713897705,0 3.700000047683716,-1.6699999570846558 3.700000047683716,-3.700000047683716 c0,-2.059999942779541 -1.6699999570846558,-3.7200000286102295 -3.700000047683716,-3.7200000286102295 s-3.7200000286102295,-1.659999966621399 -3.7200000286102295,-3.700000047683716 c0,-2.049999952316284 1.659999966621399,-3.700000047683716 3.700000047683716,-3.700000047683716 c0.25999999046325684,0 0.5,0.019999999552965164 0.75,0.07000000029802322 c5.800000190734863,0.4000000059604645 10.369999885559082,5.150000095367432 10.369999885559082,11.039999961853027 c0,5.659999847412109 -4.239999771118164,10.319999694824219 -9.720000267028809,11 z" id="svg_1" class="" stroke="#38b5ad" stroke-opacity="1" fill-opacity="1"/><path fill="#38b5ad" d="M80.3749771118164,59.990010261535645 c-2.0399999618530273,0 -3.700000047683716,-1.649999976158142 -3.700000047683716,-3.700000047683716 c0,-2.0399999618530273 1.659999966621399,-3.700000047683716 3.700000047683716,-3.700000047683716 c0.25999999046325684,0 0.5,0.019999999552965164 0.75,0.07000000029802322 c5.78000020980835,0.4000000059604645 10.359999656677246,5.170000076293945 10.359999656677246,11.050000190734863 c0,5.659999847412109 -4.239999771118164,10.329999923706055 -9.720000267028809,11 v0.10000000149011612 H39.635047912597656 c-2.0399999618530273,0 -3.700000047683716,1.6699999570846558 -3.700000047683716,3.700000047683716 c0,2.059999942779541 1.649999976158142,3.7200000286102295 3.700000047683716,3.7200000286102295 h42.13999938964844 v0.10000000149011612 c5.46999979019165,0.6800000071525574 9.699999809265137,5.349999904632568 9.699999809265137,11 c0,5.900000095367432 -4.570000171661377,10.649999618530273 -10.350000381469727,11.050000190734863 c-0.25,0.03999999910593033 -0.5,0.07000000029802322 -0.75,0.07000000029802322 c-2.0399999618530273,0 -3.700000047683716,-1.6699999570846558 -3.700000047683716,-3.700000047683716 c0,-2.059999942779541 1.659999966621399,-3.7200000286102295 3.700000047683716,-3.7200000286102295 s3.700000047683716,-1.659999966621399 3.700000047683716,-3.700000047683716 c0,-2.049999952316284 -1.659999966621399,-3.700000047683716 -3.700000047683716,-3.700000047683716 H38.23503875732422 v-0.10000000149011612 c-5.46999979019165,-0.699999988079071 -9.699999809265137,-5.349999904632568 -9.699999809265137,-11.020000457763672 c0,-1.9500000476837158 0.5299999713897705,-3.759999990463257 1.4199999570846558,-5.349999904632568 C18.355037689208984,69.1499834060669 10.005035400390625,58.150010108947754 10.005035400390625,45.190003395080566 C10.005035400390625,28.819972038269043 23.2750244140625,15.54998779296875 39.635047912597656,15.54998779296875 c11.119999885559082,0 20.799999237060547,6.130000114440918 25.860000610351562,15.199999809265137 c1.2200000286102295,-0.2199999988079071 2.4700000286102295,-0.3799999952316284 3.759999990463257,-0.3799999952316284 c10.920000076293945,0 19.979999542236328,7.880000114440918 21.850000381469727,18.260000228881836 c-2.569999933242798,-1.840000033378601 -5.639999866485596,-3.049999952316284 -8.970000267028809,-3.359999895095825 c-2.549999952316284,-4.480000019073486 -7.349999904632568,-7.5 -12.869999885559082,-7.5 c-2.9600000381469727,0 -5.699999809265137,0.8999999761581421 -8.029999732971191,2.4000000953674316 c-2.2799999713897705,-9.850000381469727 -11.0600004196167,-17.200000762939453 -21.600000381469727,-17.200000762939453 C27.36501693725586,22.949978828430176 17.40503692626953,32.8999719619751 17.40503692626953,45.15000629425049 c0,12.279999732971191 9.960000038146973,22.229999542236328 22.229999542236328,22.229999542236328 h40.7400016784668 c2.0399999618530273,0 3.700000047683716,-1.659999966621399 3.700000047683716,-3.700000047683716 c0,-2.049999952316284 -1.649999976158142,-3.700000047683716 -3.700000047683716,-3.700000047683716 z" id="svg_2" class="" stroke="#38b5ad" stroke-opacity="1" fill-opacity="1"/></g></g></svg>
