<svg version="1.1" xmlns="http://www.w3.org/2000/svg" xmlns:xlink="http://www.w3.org/1999/xlink" width="600" height="600" enable-background="new 0 0 1200 1200" xml:space="preserve" style=""><rect id="backgroundrect" width="100%" height="100%" x="0" y="0" fill="none" stroke="none" style="" class=""/>


<g class="currentLayer" style=""><title>Layer 1</title><g id="svg_1" class="selected">
	<path fill="#ffffff" d="M396.25196838378906,417.55596923828125 c-32.60300064086914,0 -59.01900100708008,26.42099952697754 -59.01900100708008,59.01300048828125 c0,32.59299850463867 26.416000366210938,59.00299835205078 59.01900100708008,59.00299835205078 c32.58100128173828,0 58.99700164794922,-26.40999984741211 58.99700164794922,-59.00299835205078 C455.2489776611328,443.97698974609375 428.8329620361328,417.55596923828125 396.25196838378906,417.55596923828125 zM396.25196838378906,508.6829833984375 c-17.719999313354492,0 -32.130001068115234,-14.404999732971191 -32.130001068115234,-32.11399841308594 c0,-17.714000701904297 14.40999984741211,-32.124000549316406 32.130001068115234,-32.124000549316406 c17.70800018310547,0 32.108001708984375,14.40999984741211 32.108001708984375,32.124000549316406 C428.3599395751953,494.27801513671875 413.95997619628906,508.6829833984375 396.25196838378906,508.6829833984375 z" id="svg_2"/>
	<path fill="#ffffff" d="M342.61097717285156,145.09400939941406 c-6.815999984741211,0 -13.496999740600586,0.6039999723434448 -20.003999710083008,1.7009999752044678 c-27.259000778198242,-49.112998962402344 -79.6259994506836,-82.36699676513672 -139.7760009765625,-82.36699676513672 c-88.24400329589844,0 -159.78199768066406,71.53800201416016 -159.78199768066406,159.77699279785156 c0,55.095001220703125 27.88599967956543,103.6729965209961 70.31199645996094,132.3990020751953 c-2.2899999618530273,8.07699966430664 -3.5950000286102295,16.573999404907227 -3.5950000286102295,25.386999130249023 c0,51.39799880981445 41.6619987487793,93.05500030517578 93.072998046875,93.05500030517578 c50.71500015258789,0 91.88300323486328,-40.59000015258789 92.95800018310547,-91.05899810791016 h66.81400299072266 c36.45100021362305,0 69.06400299072266,-16.349000930786133 90.9749984741211,-42.0880012512207 c11.032999992370605,-12.961000442504883 19.336000442504883,-28.305999755859375 24.047000885009766,-45.15800094604492 c2.8570001125335693,-10.246000289916992 4.421999931335449,-21.038999557495117 4.421999931335449,-32.198001861572266 C462.05494689941406,198.57701110839844 408.5719757080078,145.09400939941406 342.61097717285156,145.09400939941406 zM342.61097717285156,357.0989990234375 h-93.13600158691406 l-0.5619999766349792,26.31599998474121 c-0.7590000033378601,35.70000076293945 -30.39900016784668,64.74199676513672 -66.0739974975586,64.74199676513672 c-36.49399948120117,0 -66.18399810791016,-29.683000564575195 -66.18399810791016,-66.16600036621094 c0,-5.949999809265137 0.8659999966621399,-12.026000022888184 2.5759999752044678,-18.05500030517578 l5.301000118255615,-18.695999145507812 l-16.09600067138672,-10.902000427246094 c-36.63100051879883,-24.798999786376953 -58.499000549316406,-65.97200012207031 -58.499000549316406,-110.13300323486328 c0,-73.2770004272461 59.617000579833984,-132.88900756835938 132.8939971923828,-132.88900756835938 c48.255001068115234,0 92.80500030517578,26.257999420166016 116.26699829101562,68.52899932861328 l9.229000091552734,16.625999450683594 l18.74799919128418,-3.1619999408721924 c5.22599983215332,-0.8820000290870667 10.451000213623047,-1.3279999494552612 15.53499984741211,-1.3279999494552612 c51.03499984741211,0 92.55500030517578,41.52399826049805 92.55500030517578,92.56099700927734 S393.64698791503906,357.0989990234375 342.61097717285156,357.0989990234375 z" id="svg_3"/>
	<path fill="#ffffff" d="M517.9539947509766,298.79998779296875 c-13.96399974822998,0 -26.773000717163086,4.873000144958496 -36.87799835205078,12.97700023651123 c-12.277000427246094,9.847000122070312 -20.507999420166016,24.482999801635742 -21.888999938964844,41.0890007019043 c-0.13699999451637268,1.6339999437332153 -0.25200000405311584,3.2769999504089355 -0.25200000405311584,4.947000026702881 c0,32.59199905395508 26.416000366210938,59.00299835205078 59.01900100708008,59.00299835205078 c32.58100128173828,0 58.99700164794922,-26.410999298095703 58.99700164794922,-59.00299835205078 S550.5349884033203,298.79998779296875 517.9539947509766,298.79998779296875 zM517.9539947509766,389.927001953125 c-17.719999313354492,0 -32.130001068115234,-14.404999732971191 -32.130001068115234,-32.11399841308594 c0,-17.714000701904297 14.40999984741211,-32.124000549316406 32.130001068115234,-32.124000549316406 c17.70800018310547,0 32.108001708984375,14.40999984741211 32.108001708984375,32.124000549316406 C550.0629425048828,375.52197265625 535.6619415283203,389.927001953125 517.9539947509766,389.927001953125 z" id="svg_4"/>
</g></g></svg>
