<svg fill="none" height="200" viewBox="0 0 672 200" width="672" xmlns="http://www.w3.org/2000/svg">
    <g fill="#e9a135">
        <path d="m193.622 79.4272c14.018 0 23.243-7.6876 23.243-19.5355 0-8.5016-3.979-14.3803-12.752-17.8171l-10.491-4.1603c-6.241-2.5324-8.683-4.703-8.683-8.2303 0-3.7986 2.804-6.2405 7.597-6.2405 5.698 0 8.773 3.2559 8.773 9.1347h14.652c0-12.2097-9.225-20.0782-23.153-20.0782-13.748 0-22.52 7.4163-22.52 18.5406 0 8.2303 4.341 14.109 12.842 17.2745l11.396 4.4317c5.698 2.261 7.688 4.2508 7.688 8.1398 0 4.4316-3.075 6.964-8.502 6.964-6.421 0-10.31-4.0699-10.31-10.9435h-14.652c0 14.1994 9.316 22.5201 24.872 22.5201z"/>
        <path d="m268.407 53.5608c0-12.3002-9.225-20.7113-22.791-20.7113-14.199 0-23.515 8.6824-23.515 22.9723 0 14.5612 9.135 22.9723 23.967 22.9723 11.577 0 20.35-5.6978 21.706-14.2898h-13.566c-1.176 2.7132-3.889 3.889-8.14 3.889-6.15 0-9.948-3.0751-10.22-8.7729h32.198c.271-2.442.361-3.7986.361-6.0596zm-32.559-2.5324c.091-5.3361 3.708-8.8634 9.678-8.8634 5.878 0 9.134 3.0751 9.225 8.8634z"/>
        <path d="m290.161 77.6184v-22.7915c0-6.6927 2.894-10.3104 8.411-10.3104 5.607 0 7.688 3.3464 7.688 10.6722v22.4297h13.928v-26.9518c0-11.8479-5.336-17.8171-15.918-17.8171-6.602 0-11.577 2.6228-14.109 7.5067v-6.331h-13.838v43.5932z"/>
        <path d="m348.715 78.7941c11.577 0 19.083-5.3361 19.083-14.3803 0-6.6023-4.16-10.7626-11.033-12.5714l-9.226-2.5324c-3.527-.9044-4.793-2.1706-4.793-4.1604 0-2.0801 1.99-3.5272 4.974-3.5272 3.708 0 5.969 1.6279 5.969 4.703h13.657c0-8.6825-7.145-13.4759-19.445-13.4759-11.215 0-18.631 5.4265-18.631 13.6568 0 6.6022 3.98 11.0339 10.944 12.7523l9.134 2.2611c3.708.9044 4.703 2.0801 4.703 4.0699 0 2.5323-2.08 3.9794-5.065 3.9794-4.25 0-7.144-2.0801-7.144-5.0647h-13.748c0 8.5015 8.231 14.2898 20.621 14.2898z"/>
        <path d="m397.459 78.7941c14.923 0 24.148-9.6773 24.148-22.9723s-9.225-22.9723-24.148-22.9723c-15.013 0-24.238 9.6773-24.238 22.9723s9.225 22.9723 24.238 22.9723zm0-11.667c-6.602 0-10.401-4.703-10.401-11.3053s3.799-11.3053 10.401-11.3053c6.512 0 10.401 4.703 10.401 11.3053s-3.889 11.3053-10.401 11.3053z"/>
        <path d="m443.4 77.6184v-16.8223c0-9.6773 3.98-14.5612 11.487-14.5612 1.718 0 2.532.0905 4.16.2714v-12.8428c-1.085-.2714-1.99-.3618-3.618-.3618-5.336 0-10.491 3.3464-12.029 9.8582v-9.1347h-13.837v43.5932z"/>
        <path d="m203.118 169.869c18.541 0 30.57-9.858 32.288-24.781h-15.556c-1.628 7.145-7.597 11.667-16.642 11.667-11.938 0-18.811-7.959-18.811-20.349 0-12.391 6.873-20.35 18.811-20.35 9.045 0 15.014 4.522 16.642 11.667h15.556c-1.718-14.923-13.747-24.781-32.288-24.781-20.802 0-34.006 14.019-34.006 33.464s13.204 33.463 34.006 33.463z"/>
        <path d="m265.682 169.236c14.923 0 24.148-9.677 24.148-22.972s-9.225-22.972-24.148-22.972c-15.013 0-24.238 9.677-24.238 22.972s9.225 22.972 24.238 22.972zm0-11.667c-6.602 0-10.401-4.703-10.401-11.305s3.799-11.305 10.401-11.305c6.512 0 10.401 4.703 10.401 11.305s-3.889 11.305-10.401 11.305z"/>
        <path d="m311.623 168.061v-22.43c0-8.23 2.985-10.672 7.417-10.672 4.25 0 6.421 2.442 6.421 8.501v24.601h13.928v-22.43c0-8.23 2.985-10.672 7.326-10.672 4.251 0 6.512 2.532 6.512 8.592v24.51h13.928v-27.043c0-9.134-2.985-17.726-15.466-17.726-6.421 0-11.576 3.346-13.928 8.049-1.899-4.613-5.879-8.049-13.657-8.049-6.059 0-10.581 3.165-12.481 7.506v-6.331h-13.837v43.594z"/>
        <path d="m391.908 168.061v-22.43c0-8.23 2.985-10.672 7.417-10.672 4.25 0 6.421 2.442 6.421 8.501v24.601h13.928v-22.43c0-8.23 2.985-10.672 7.326-10.672 4.251 0 6.512 2.532 6.512 8.592v24.51h13.928v-27.043c0-9.134-2.985-17.726-15.466-17.726-6.421 0-11.576 3.346-13.928 8.049-1.899-4.613-5.879-8.049-13.657-8.049-6.059 0-10.581 3.165-12.481 7.506v-6.331h-13.837v43.594z"/>
        <path d="m474.002 169.236c6.603 0 11.125-2.803 13.567-7.416v6.241h13.747v-43.594h-13.747v23.425c0 5.879-2.533 9.677-8.411 9.677-5.246 0-7.236-3.256-7.236-9.225v-23.877h-14.018v26.952c0 11.305 5.607 17.817 16.098 17.817z"/>
        <path d="m526.6 168.061v-22.792c0-6.693 2.894-10.31 8.411-10.31 5.608 0 7.688 3.346 7.688 10.672v22.43h13.928v-26.952c0-11.848-5.336-17.817-15.918-17.817-6.602 0-11.576 2.623-14.109 7.506v-6.331h-13.838v43.594z"/>
        <path d="m574.573 120.669c4.974 0 8.592-3.799 8.592-8.411 0-4.703-3.618-8.502-8.592-8.502-4.975 0-8.502 3.799-8.502 8.502 0 4.612 3.527 8.411 8.502 8.411zm6.873 47.392v-43.594h-13.747v43.594z"/>
        <path d="m615.841 157.298c-3.437 0-6.06-.995-6.06-7.416v-14.471h9.859v-10.944h-9.859v-12.933h-13.837v12.933h-6.874v10.944h6.874v17.365c0 14.561 8.954 16.008 15.465 16.008 3.98 0 7.236-.362 9.226-.723v-11.034c-1.267.181-3.256.271-4.794.271z"/>
        <path d="m658.037 146.083c0 6.693-2.803 11.034-8.411 11.034-5.788 0-7.687-3.799-7.687-9.406v-23.244h-13.838v25.324c0 10.853 4.974 18.27 16.099 18.27 6.602 0 11.395-2.623 13.837-7.236v6.783c0 6.784-3.346 9.768-8.411 9.768-5.245 0-7.326-2.17-7.597-5.879h-13.928c.09 4.703 2.261 8.773 5.426 11.487 3.618 2.984 8.683 4.522 16.099 4.522 7.326 0 12.119-1.719 16.008-5.065 3.709-3.346 6.241-8.683 6.241-15.737v-42.237h-13.838z"/>
        <path d="m60.355 135.355c-4.632 4.658-10.1418 8.35-16.2105 10.864s-12.5758 3.799-19.1445 3.781v50c55.23 0 100-44.77 100-100h-50c.018 6.569-1.2671 13.076-3.7809 19.145-2.5139 6.068-6.2065 11.578-10.8641 16.21z"/>
        <path d="m64.645 64.645c4.632-4.6576 10.1418-8.3502 16.2105-10.8641 6.0687-2.5138 12.5758-3.7989 19.1445-3.7809v-50c-55.23 0-100 44.77-100 100h50c-.018-6.5687 1.2671-13.0758 3.7809-19.1445 2.5139-6.0687 6.2065-11.5785 10.8641-16.2105z"/>
    </g>
</svg>