<svg width="220" height="352" viewBox="0 0 220 352" fill="none" xmlns="http://www.w3.org/2000/svg">
    <path d="M106.225 238.225C98.0725 246.422 88.3753 252.921 77.6943 257.346C67.0134 261.77 55.561 264.032 44 264V352C141.205 352 220 273.205 220 176H132C132.032 187.561 129.77 199.013 125.346 209.694C120.921 220.375 114.422 230.073 106.225 238.225Z"
          fill="#084945"/>
    <path d="M113.775 113.775C121.927 105.578 131.625 99.0788 142.306 94.6544C152.987 90.2301 164.439 87.9683 176 88V0C78.7952 0 0 78.7952 0 176H88C87.9683 164.439 90.2301 152.987 94.6544 142.306C99.0788 131.625 105.578 121.927 113.775 113.775Z"
          fill="#084945"/>
</svg>
