<svg fill="none" height="352" viewBox="0 0 220 352" width="220" xmlns="http://www.w3.org/2000/svg">
    <g fill="#e9a135">
        <path d="m106.225 238.225c-8.1525 8.197-17.8497 14.696-28.5307 19.121-10.6809 4.424-22.1333 6.686-33.6943 6.654v88c97.205 0 176-78.795 176-176h-88c.032 11.561-2.23 23.013-6.654 33.694-4.425 10.681-10.924 20.379-19.121 28.531z"/>
        <path d="m113.775 113.775c8.152-8.197 17.85-14.6962 28.531-19.1206 10.681-4.4243 22.133-6.6861 33.694-6.6544v-88c-97.2048 0-176 78.7952-176 176h88c-.0317-11.561 2.2301-23.013 6.6544-33.694 4.4244-10.681 10.9236-20.379 19.1206-28.531z"/>
    </g>
</svg>