<?xml version="1.0" standalone="no"?>
<!DOCTYPE svg PUBLIC "-//W3C//DTD SVG 20010904//EN"
 "http://www.w3.org/TR/2001/REC-SVG-20010904/DTD/svg10.dtd">
<svg version="1.0" xmlns="http://www.w3.org/2000/svg"
 width="700.000000pt" height="700.000000pt" viewBox="0 0 700.000000 700.000000"
 preserveAspectRatio="xMidYMid meet">
<metadata>
Created by potrace 1.11, written by Peter Selinger 2001-2013
</metadata>
<g transform="translate(0.000000,700.000000) scale(0.100000,-0.100000)"
fill="#000000" stroke="none">
<path d="M2080 6069 c-117 -18 -135 -21 -140 -24 -3 -2 -23 -6 -45 -9 -140
-22 -452 -162 -599 -268 -402 -290 -646 -691 -721 -1186 -12 -81 -14 -386 -2
-452 2 -14 7 -45 12 -70 23 -137 51 -233 106 -366 28 -68 48 -109 113 -229 23
-43 101 -151 154 -214 181 -216 391 -372 657 -487 55 -24 100 -47 99 -51 0 -4
-8 -24 -17 -44 -38 -84 -55 -174 -52 -275 3 -121 16 -177 67 -275 69 -135 160
-224 293 -289 155 -74 69 -70 1444 -70 907 0 1244 -3 1279 -12 32 -8 59 -24
88 -55 107 -109 70 -291 -71 -348 -16 -7 -55 -15 -86 -18 -124 -11 -209 -99
-209 -215 1 -100 71 -189 167 -210 100 -23 312 35 422 115 69 51 157 150 194
221 153 290 72 638 -193 833 -45 33 -99 60 -180 90 l-65 24 -1285 5 c-1416 6
-1308 0 -1374 66 -45 46 -60 83 -60 149 1 95 45 165 129 201 37 16 129 18
1290 19 1287 2 1278 2 1395 41 169 57 322 216 387 401 24 70 27 92 27 208 0
110 -3 140 -22 195 -92 261 -322 434 -592 445 -83 4 -116 -6 -169 -50 -66 -56
-90 -169 -52 -250 36 -77 104 -121 196 -126 54 -3 130 -35 157 -68 96 -114 62
-282 -69 -342 -44 -20 -55 -20 -1302 -20 -691 0 -1272 3 -1291 5 -72 10 -135
19 -145 22 -5 2 -30 8 -55 14 -80 19 -163 51 -261 101 -374 191 -630 548 -696
974 -10 64 -10 283 0 355 59 434 339 811 742 999 180 84 354 120 563 115 75
-1 151 -5 167 -8 17 -3 46 -9 65 -13 50 -9 48 -9 130 -33 145 -43 356 -160
458 -253 80 -74 97 -91 148 -152 108 -127 184 -263 235 -418 16 -51 32 -98 34
-104 3 -9 25 -2 73 22 342 172 733 114 1001 -148 40 -39 120 -139 146 -185 1
-1 28 -7 61 -12 140 -24 272 -71 383 -137 40 -24 75 -42 77 -40 2 1 -4 30 -12
62 -72 285 -228 528 -454 710 -67 54 -168 119 -230 147 -99 45 -131 58 -194
77 -70 22 -76 23 -185 42 -77 14 -250 16 -347 5 l-71 -8 -28 49 c-83 145 -267
353 -409 464 -258 200 -566 326 -882 359 -103 11 -317 10 -394 -1z"/>
<path d="M5648 3462 c-71 -36 -110 -92 -116 -167 -11 -132 71 -222 216 -239
68 -8 109 -26 146 -62 98 -98 83 -252 -31 -332 -46 -33 -55 -34 -283 -37 -123
-2 -217 -7 -234 -14 -87 -35 -139 -110 -138 -201 0 -33 7 -74 17 -94 22 -47
84 -100 132 -114 22 -6 125 -11 243 -12 233 -1 309 12 435 75 297 146 434 508
309 816 -76 186 -236 328 -426 380 -67 18 -79 20 -150 24 -57 4 -74 0 -120
-23z"/>
</g>
</svg>
