<svg version="1" xmlns="http://www.w3.org/2000/svg" width="933.333" height="933.333" viewBox="0 0 700.000000 700.000000"><path d="M229.8 87.5c-.1.1-4.8.5-10.3.9C121 94.5 46.8 182.1 56.3 281c2.9 29.5 14.5 60.1 32.3 85.1 9.5 13.5 29.9 33.2 43.5 42.2 10.3 6.9 25.4 15 34.7 18.7 1.7.7 3.2 1.6 3.2 2 0 .5-.9 3-2 5.6-7.3 16.9-5.2 40.7 5.2 58.2 4.4 7.5 15.9 18.8 23.9 23.5 5.7 3.4 18.3 8 21.6 8 .7 0 1.3.3 1.3.7 0 .4 56.6.7 125.8.7 93.4 0 126.6.3 129.3 1.2 3.2 1 12.5 9.1 10.5 9.1-.5 0-.3.6.3 1.4 2.9 3.5 1.1 14.8-3.1 19.3-3.4 3.7-7.3 5.4-14.7 6.4-14.7 2-23.3 11-23.4 24.5-.1 8 3.1 14.5 9.7 19.5 3.9 3 10.6 5.5 13.6 5.1.3 0 3.2-.3 6.5-.6 8.9-.9 11.3-1.4 19.3-4.6 30-12.1 46.9-42.4 41.5-74.4-3.6-21.5-18.4-40.4-38.6-49.6-14.5-6.5-6.4-6.2-143.6-6.2-88.2 0-125.4-.4-127.9-1.2-4.9-1.5-10.9-7.8-11.9-12.4-1.9-9.2 2-17.9 9.6-21.7l4.3-2.2 124.8-.1c68.6 0 126.3-.3 128.1-.7 28.4-5.9 48.9-25.7 54.7-52.6 4.8-22.1-1.3-44-16.7-60.3-12.4-13-27.1-19.8-45.7-21.2-6.8-.6-8.8-.3-12.7 1.4-10.2 4.5-15.9 14-15.1 24.9 1 12.4 12.2 22.3 25.2 22.3 11.8 0 20.1 12 16.6 23.9-1.5 5.1-4.5 8.6-9.6 11.2-3.6 1.9-7.7 1.9-129.5 1.9-136.5 0-135.7 0-153.3-5.5-54.8-17.3-91.1-68.2-89.3-125.3 1.7-53.9 37.8-101 89.5-116.6 12.9-3.9 22.6-5.4 36.8-5.4 24.9 0 44 5.3 66.5 18.6 27.3 16.2 50.2 48.2 57 80 .6 3.1.8 3.2 2.8 1.9 25.5-16.5 55.2-18.8 82.3-6.2 13.4 6.2 26 17 33.9 29.3l3.9 5.9 8 1.2c13.8 2.2 32.4 9.5 42.1 16.6 1.7 1.2 4.2 3 5.6 3.9l2.5 1.6-1.7-8.8c-5.2-26.1-17.4-48.7-36.4-67.7-25.3-25.4-56.5-38.6-91-38.8-7.7 0-16 .3-18.5.7l-4.5.7-2.9-4.8c-16.9-27.8-43.9-52-73.8-66.3-19.3-9.2-42.7-15.5-61.9-16.6-5.7-.3-11.4-.7-12.6-.9-1.2-.2-2.3-.2-2.5 0z"/><path d="M570.4 347.9c-13.6 3.5-21.5 19.2-16.4 32.3 3.6 9.2 10.6 14.2 22 15.8 5.4.7 8.6 1.8 11.4 3.8 11.1 7.7 10.4 24.1-1.3 31-4.3 2.5-4.7 2.6-26 2.7-20.3.2-21.9.3-26 2.4-9.5 4.9-14.8 14.3-13.8 24.5.6 6.2 2.5 10.4 7.1 14.9 6.7 6.7 8.4 7 35.1 7.2 13.2.1 24.5-.1 25-.5.6-.3 3.5-1.2 6.5-2 19.8-4.8 37.4-20.1 45.2-39.2 12.9-31.8.7-67.7-28.8-84.4-5.7-3.2-17.4-7.8-17.4-6.9 0 .3-1.1 0-2.5-.5-3.5-1.3-16.4-2-20.1-1.1z"/></svg>